#define bullet0_width 11
#define bullet0_height 11
static char bullet0_bits[] = {
   0x00, 0x00, 0x70, 0x00, 0xf8, 0x00, 0xfc, 0x01, 0xfe, 0x03, 0xfe, 0x03,
   0xfe, 0x03, 0xfc, 0x01, 0xf8, 0x00, 0x70, 0x00, 0x00, 0x00};
