#define downarrow_width 7
#define downarrow_height 7
#ifndef WIN32
static char downarrow_bits[] = {
   0x1c, 0x1c, 0x1c, 0x7f, 0x3e, 0x1c, 0x08};
#else
static char downarrow_bits[] = {
   '\x1c', '\x1c', '\x1c', '\x7f', '\x3e', '\x1c', '\x08'};
#endif
