#define meeting_width 16
#define meeting_height 16
static char meeting_bits[] = {
   0x07, 0xe0, 0x0f, 0xf0, 0x0f, 0xf0, 0x0f, 0xf0, 0x0f, 0xf0, 0x0f, 0xf0,
   0x19, 0x98, 0x1f, 0xf8, 0x3f, 0xfc, 0x0b, 0xd0, 0x07, 0xe0, 0x0f, 0xf0,
   0x0f, 0xf0, 0x03, 0xc0, 0x01, 0x80, 0x01, 0x80};
