#define smeeting_width 16
#define smeeting_height 16
static char smeeting_bits[] = {
 0xf8,0x1f,0xf0,0x0f,0xf0,0x0f,0xf0,0x0f,0xf0,0x0f,0xf0,0x0f,0xe6,0x67,0xe0,
 0x07,0xc0,0x03,0xf4,0x2f,0xf8,0x1f,0xf0,0x0f,0xf0,0x0f,0xfc,0x3f,0xfe,0x7f,
 0xfe,0x7f};
