#define test_width 16
#define test_height 16
#ifndef WIN32
static char test_bits[] = {
   0x00, 0x00, 0x00, 0x00, 0x00, 0x0e, 0x00, 0x07, 0x00, 0x23, 0x00, 0x37,
   0x00, 0x3f, 0x80, 0x1f, 0xc0, 0x01, 0xe0, 0x00, 0x70, 0x00, 0x38, 0x00,
   0x1c, 0x00, 0x0e, 0x00, 0x07, 0x00, 0x02, 0x00};
#else
static char test_bits[] = {
   '\x00', '\x00', '\x00', '\x00', '\x00', '\x0e', '\x00', '\x07', '\x00', '\x23', '\x00', '\x37',
   '\x00', '\x3f', '\x80', '\x1f', '\xc0', '\x01', '\xe0', '\x00', '\x70', '\x00', '\x38', '\x00',
   '\x1c', '\x00', '\x0e', '\x00', '\x07', '\x00', '\x02', '\x00'};
#endif
