#define uparrow_width 7
#define uparrow_height 7
static char uparrow_bits[] = {
   0x08, 0x1c, 0x3e, 0x7f, 0x1c, 0x1c, 0x1c};
