#define wb_width 16
#define wb_height 16
static unsigned char wb_bits[] = {
  0x00, 0x60, 0x00, 0xf0, 0x00, 0xe8, 0x00, 0x44, 0x00, 0x22, 0x00, 0x11,
  0x80, 0x08, 0x40, 0x04, 0x40, 0x02, 0xa0, 0x01, 0x60, 0x00, 0x22, 0x1e,
  0x66, 0x33, 0xcc, 0x21, 0x78, 0x33, 0x00, 0x1e, };
